<?xml version="1.0" encoding="iso-8859-1"?>
<!-- Generator: Adobe Illustrator 19.0.0, SVG Export Plug-In . SVG Version: 6.00 Build 0)  -->
<svg version="1.1" id="Layer_1" xmlns="http://www.w3.org/2000/svg" xmlns:xlink="http://www.w3.org/1999/xlink" x="0px" y="0px"
	 viewBox="0 0 512 512" style="enable-background:new 0 0 512 512;" xml:space="preserve">
<g>
	<g>
		<path d="M256,0C114.842,0,0,114.842,0,256s114.842,256,256,256s256-114.842,256-256S397.158,0,256,0z M256,494.933
			C124.254,494.933,17.067,387.746,17.067,256S124.254,17.067,256,17.067S494.933,124.254,494.933,256S387.746,494.933,256,494.933z
			"/>
	</g>
</g>
<g>
	<g>
		<path d="M349.688,450.526l-85.333-409.6c-0.828-3.951-4.309-6.792-8.354-6.792s-7.526,2.842-8.354,6.792l-85.333,409.6
			c-0.802,3.84,1.118,7.723,4.642,9.421c3.524,1.698,7.757,0.785,10.266-2.219L256,363.196l78.78,94.532
			c1.664,1.997,4.079,3.072,6.554,3.072c1.254,0,2.517-0.273,3.712-0.853C348.57,458.24,350.49,454.357,349.688,450.526z
			 M262.554,344.405c-1.621-1.946-4.019-3.072-6.554-3.072s-4.932,1.126-6.554,3.072l-63.454,76.143L256,84.506l70.008,336.043
			L262.554,344.405z"/>
	</g>
</g>
<g>
</g>
<g>
</g>
<g>
</g>
<g>
</g>
<g>
</g>
<g>
</g>
<g>
</g>
<g>
</g>
<g>
</g>
<g>
</g>
<g>
</g>
<g>
</g>
<g>
</g>
<g>
</g>
<g>
</g>
</svg>
